<?xml version="1.0" standalone="no"?>
<!DOCTYPE svg PUBLIC "-//W3C//DTD SVG 20010904//EN"
 "http://www.w3.org/TR/2001/REC-SVG-20010904/DTD/svg10.dtd">
<svg version="1.0" xmlns="http://www.w3.org/2000/svg"
 width="337.000000pt" height="337.000000pt" viewBox="0 0 337.000000 337.000000"
 preserveAspectRatio="xMidYMid meet">
<metadata>
Created by potrace 1.14, written by Peter Selinger 2001-2017
</metadata>
<g transform="translate(0.000000,337.000000) scale(0.100000,-0.100000)"
fill="#000000" stroke="none">
<path d="M1768 3162 c58 -85 71 -175 40 -268 -11 -33 -26 -66 -34 -75 -8 -8
-14 -20 -14 -25 0 -16 -92 -104 -115 -110 -30 -7 -65 -1 -100 19 -44 24 -63
43 -147 142 -72 86 -111 116 -189 144 l-27 10 15 -52 c9 -29 18 -59 21 -67 12
-34 13 -48 14 -115 2 -90 -23 -149 -78 -188 -96 -66 -192 -35 -332 105 -45 45
-82 85 -82 89 0 4 -6 14 -14 22 -8 7 -35 44 -60 82 -47 70 -48 70 -49 -5 0
-40 10 -136 17 -165 3 -11 9 -36 14 -55 12 -46 40 -106 101 -214 27 -49 48
-93 45 -97 -2 -4 0 -10 5 -13 18 -11 -13 -77 -55 -119 -56 -57 -112 -76 -205
-72 -77 4 -127 20 -168 55 -19 16 -24 31 -25 70 -1 28 -4 50 -8 50 -21 0 -85
-116 -82 -150 4 -44 9 -54 51 -110 23 -31 46 -66 51 -79 23 -64 -81 -211 -149
-211 -37 0 -71 34 -92 91 -10 25 -33 61 -53 80 l-36 34 6 -130 c8 -160 7 -322
0 -438 -7 -104 5 -135 84 -212 36 -35 52 -58 52 -76 0 -29 -23 -44 -47 -31 -8
5 -26 7 -40 4 l-24 -5 23 -13 c13 -7 30 -16 38 -20 31 -16 59 -48 64 -73 18
-89 14 -117 -16 -106 -16 6 -43 53 -39 68 1 5 -2 6 -7 3 -16 -10 2 -185 23
-225 18 -34 67 -81 91 -85 86 -18 181 -110 132 -129 -7 -3 -32 6 -55 19 -47
27 -105 28 -144 2 -21 -14 -22 -15 -4 -15 61 1 78 -5 123 -47 78 -72 162 -103
290 -105 29 -1 33 -4 30 -24 -2 -16 -11 -23 -30 -25 -16 -2 -28 -6 -28 -9 0
-11 66 -63 87 -69 13 -3 23 -9 23 -13 0 -4 6 -8 13 -8 6 0 32 -5 56 -11 52
-12 250 -13 313 -2 24 5 57 10 73 13 67 10 116 32 167 73 29 24 57 44 63 45 5
0 18 2 28 4 13 2 17 -3 17 -25 0 -16 7 -30 15 -34 8 -3 15 -1 15 5 0 17 33 44
90 73 56 28 130 108 221 236 21 30 43 60 49 67 5 7 10 15 10 18 0 3 12 24 27
48 25 37 37 50 79 86 28 23 126 72 204 102 68 26 102 33 170 35 153 4 348 45
405 84 17 12 78 31 115 36 31 4 232 45 286 59 12 3 39 13 60 22 22 9 41 17 44
18 16 4 100 50 100 55 0 3 -23 6 -51 8 -66 2 -137 36 -145 68 -14 54 6 164 41
230 37 69 81 136 112 169 10 11 36 45 58 75 39 52 40 58 44 145 3 88 3 90 -16
73 -22 -20 -57 -23 -76 -8 -7 6 -25 20 -41 32 -36 27 -74 113 -79 178 -3 45
10 137 28 198 9 26 -2 28 -33 6 -27 -18 -90 -25 -116 -11 -48 24 -75 72 -71
127 3 41 8 63 15 70 9 9 38 74 47 105 10 34 9 135 -1 179 -9 38 -34 87 -56
108 -17 16 -18 15 -18 -17 0 -88 -50 -164 -109 -166 -86 -3 -120 8 -169 56
-47 45 -73 133 -71 235 1 39 -2 70 -6 70 -29 0 -86 -68 -97 -115 -8 -36 -50
-126 -68 -147 -21 -25 -59 -23 -67 2 -3 11 -10 20 -15 20 -4 0 -10 10 -13 22
-6 21 -8 20 -41 -15 -27 -28 -42 -37 -68 -37 -33 0 -104 28 -134 52 -42 35
-85 85 -91 106 -3 12 -9 22 -14 22 -5 0 -9 6 -9 14 0 29 -98 95 -171 116 l-29
9 18 -27z"/>
</g>
</svg>
